<?xml version="1.0" standalone="no"?>
<!DOCTYPE svg PUBLIC "-//W3C//DTD SVG 20010904//EN"
 "http://www.w3.org/TR/2001/REC-SVG-20010904/DTD/svg10.dtd">
<svg version="1.0" xmlns="http://www.w3.org/2000/svg"
 width="229.000000pt" height="229.000000pt" viewBox="0 0 229.000000 229.000000"
 preserveAspectRatio="xMidYMid meet">
<metadata>
Created by potrace 1.11, written by Peter Selinger 2001-2013
</metadata>
<g transform="translate(0.000000,229.000000) scale(0.100000,-0.100000)"
fill="#000000" stroke="none">
<path d="M1006 2242 c-4 -4 -65 -11 -143 -16 -13 0 -23 -4 -23 -8 0 -5 -3 -7
-7 -6 -13 2 -67 -14 -80 -25 -7 -5 -13 -6 -13 -2 0 4 -6 2 -14 -4 -8 -6 -18
-11 -22 -10 -5 1 -20 -2 -34 -8 -14 -6 -29 -11 -35 -13 -5 -1 -17 -7 -25 -14
-8 -7 -36 -22 -62 -34 -27 -12 -48 -27 -48 -33 0 -5 -4 -8 -8 -5 -5 3 -23 -8
-41 -24 -18 -17 -34 -30 -37 -30 -2 0 -12 -8 -23 -17 -10 -10 -29 -26 -42 -35
-13 -10 -21 -18 -18 -18 3 0 -28 -34 -68 -77 -40 -42 -73 -82 -73 -90 0 -7 -4
-13 -8 -13 -12 0 -86 -154 -113 -235 -13 -39 -27 -72 -32 -73 -4 -2 -5 -8 -2
-12 3 -5 -1 -26 -8 -48 -8 -21 -13 -51 -13 -65 1 -14 -2 -23 -6 -21 -4 3 -7
-65 -7 -151 0 -87 4 -157 10 -160 5 -4 7 -10 4 -15 -7 -11 31 -153 51 -191 8
-16 11 -29 7 -29 -4 0 -2 -5 5 -12 7 -7 12 -20 12 -30 0 -10 4 -18 9 -18 5 0
11 -13 14 -29 3 -16 12 -35 19 -43 19 -21 37 -50 49 -80 6 -16 15 -28 20 -28
5 0 9 -5 9 -10 0 -6 10 -21 23 -34 37 -39 57 -66 57 -77 0 -5 5 -7 10 -4 6 3
14 -4 19 -17 6 -13 10 -19 10 -15 1 4 12 -4 26 -19 14 -15 25 -24 25 -20 0 4
11 -3 24 -16 33 -31 103 -81 110 -79 4 1 14 -5 22 -14 9 -8 22 -15 30 -15 8 0
13 -4 10 -9 -4 -5 7 -12 24 -16 16 -4 51 -18 76 -31 25 -13 57 -25 70 -26 13
-1 24 -5 24 -9 0 -3 6 -6 13 -6 22 -1 66 -12 78 -19 34 -21 465 -22 452 -1 -2
4 6 7 19 7 13 0 46 7 73 16 28 9 55 17 60 18 6 2 21 8 35 13 14 6 28 9 33 6 4
-2 7 1 7 8 0 7 3 10 6 6 3 -3 24 5 45 19 21 13 39 22 39 18 0 -3 7 2 16 10 8
9 22 16 30 16 8 0 14 5 14 11 0 5 4 8 9 5 5 -3 11 1 15 9 3 8 12 15 20 15 7 0
16 7 20 15 3 8 9 14 13 13 5 -2 32 20 60 48 29 29 55 49 58 46 3 -3 5 0 5 7 0
7 16 28 35 47 20 19 33 34 29 34 -3 0 8 17 25 37 16 20 28 40 25 45 -3 4 -1 8
5 8 6 0 20 17 31 38 11 20 24 44 29 52 23 37 64 132 64 145 0 8 4 15 9 15 4 0
7 3 7 8 -1 4 0 9 1 12 4 11 11 46 15 70 1 14 4 25 5 25 2 0 8 32 16 85 10 66
5 335 -6 335 -1 0 -4 18 -6 40 -3 21 -10 45 -15 52 -6 7 -8 17 -5 22 4 5 2 12
-4 16 -6 4 -8 10 -5 15 3 5 1 11 -5 15 -5 3 -10 17 -10 31 0 13 -4 24 -10 24
-5 0 -10 7 -10 16 0 8 -7 22 -15 30 -8 9 -15 24 -15 35 0 10 -4 19 -10 19 -5
0 -10 9 -10 20 0 11 -3 20 -8 20 -4 0 -15 15 -25 33 -10 18 -28 45 -40 60 -12
14 -33 40 -47 58 -38 50 -115 123 -162 155 -24 16 -49 35 -56 42 -7 6 -19 12
-27 12 -7 0 -15 4 -17 8 -9 25 -247 132 -326 147 -9 2 -17 4 -17 5 0 13 -317
35 -329 22z"/>
</g>
</svg>
